<?xml version="1.0" standalone="no"?>
<!DOCTYPE svg PUBLIC "-//W3C//DTD SVG 1.1//EN" "http://www.w3.org/Graphics/SVG/1.1/DTD/svg11.dtd" >
<svg xmlns="http://www.w3.org/2000/svg">
<metadata>Generated by IcoMoon</metadata>
<defs>
<font id="icomoon" horiz-adv-x="1024">
<font-face units-per-em="1024" ascent="960" descent="-64" />
<missing-glyph horiz-adv-x="1024" />
<glyph unicode="&#x20;" d="" horiz-adv-x="512" />
<glyph unicode="&#xe600;" d="M0.159 746.955l511.818-369.122 511.86 369.122v-228.636l-511.86-369.141-511.818 369.141v228.636z" />
<glyph unicode="&#xe601;" d="M213.049-63.829l369.118 511.822-369.118 511.852h228.64l369.141-511.852-369.141-511.822h-228.64z" />
<glyph unicode="&#xe602;" d="M873.445 291.267c0 0 142.063 305.429 142.063 305.429 21.989 52.876 11.143 123.255-69.939 123.255 0 0-574.976 0-574.976 0-6.501 0-13.498-1.297-20.503-3.292-20.613 70.258-36.147 123.176-39.781 135.547-8.336 27.948-19.187 54.674-42.109 75.734-23.055 21.235-54.951 30.136-89.281 29.908 0 0-137.455-0.080-137.455-0.080-21.853 0-39.572-17.673-39.572-39.621 0-21.876 17.719-39.617 39.572-39.617 0 0 137.455 0 137.455 0 23.233-0.315 30.602-4.608 36.117-9.315 5.662-4.858 12.705-16.756 19.263-39.367 13.263-45.196 185.363-631.702 185.439-631.702 0 0 1.297-3.808 1.297-3.808 1.142-2.598 11.181-27.291 35.146-53.714 23.476-26.169 64.269-55.004 120.457-54.928 54.060 0 310.272 0 310.272 0 21.853 0 39.591 17.825 39.591 39.697s-17.738 39.621-39.591 39.621c0 0-256.212 0-310.272 0-28.513 0.152-47.115 13.274-61.929 29.074-7.119 7.779-12.553 15.963-16.035 21.967-2.344 4.043-3.406 6.463-3.906 7.547-1.085 3.713-3.212 10.976-6.057 20.673 0 0 321.066 0 321.066 0 40.812 0 59.783 34.221 63.67 46.99zM760.457 638.502c0 0 183.046 0 183.046 0-0.504-2.704-1.316-5.92-2.628-9.322 0 0-28.767-61.85-28.767-61.85h-151.651v71.172zM760.457 515.849h127.689l-31.334-67.379h-96.355v67.379zM550.506 325.723c0 0-65.434 0-65.434 0-1.544 0-3.072 0.542-4.35 1.316 0 0-21.929 69.871-21.929 69.871h91.712v-71.187zM550.506 448.47h-107.903l-21.14 67.379h129.043v-67.379zM550.506 567.33h-145.211c0 0-18.864 60.101-18.864 60.101-1.312 4.411-2.185 8.052-2.761 11.071 0 0 166.836 0 166.836 0v-71.172zM708.93 325.723h-106.978v71.187h106.978v-71.187zM708.93 448.47h-106.978v67.379h106.978v-67.379zM708.93 567.33h-106.978v71.172h106.978v-71.172zM760.457 325.723v71.187h72.37l-33.109-71.187h-39.261zM556.442 78.283c-39.648 0-71.794-32.165-71.794-71.847 0-39.678 32.146-71.847 71.794-71.847 39.652 0 71.798 32.169 71.798 71.847 0 39.682-32.146 71.847-71.798 71.847zM794.112 78.283c-39.655 0-71.798-32.165-71.798-71.847 0-39.678 32.142-71.847 71.798-71.847 39.648 0 71.79 32.169 71.79 71.847 0 39.682-32.142 71.847-71.79 71.847z" />
<glyph unicode="&#xe603;" d="M965.943 520.723c-79.823-80.266-209.241-80.266-289.060 0-79.83 80.263-79.83 210.428 0 290.664 79.819 80.289 209.237 80.289 289.060 0 79.819-80.236 79.819-210.402 0-290.664zM925.734 692.285c0 0-78.222 0-78.222 0s0.011 78.662 0.011 78.662c-0.038 5.769-4.722 10.498-10.468 10.498 0 0-31.289-0.019-31.289-0.019-5.757 0.019-10.441-4.665-10.422-10.479 0 0 0-78.681 0-78.681s-78.23 0-78.23 0c-5.765 0.046-10.449-4.688-10.43-10.479 0 0 0-31.49 0-31.49-0.004-5.719 4.688-10.452 10.441-10.475 0 0 78.207 0 78.207 0s-0.008-78.666-0.008-78.666c0.030-5.787 4.691-10.471 10.441-10.498 0 0 31.289 0.046 31.289 0.046 5.765-0.046 10.449 4.688 10.449 10.452 0 0 0.008 78.666 0.008 78.666s78.222 0.023 78.222 0.023c5.753 0 10.437 4.688 10.43 10.475 0 0 0.008 31.467 0.008 31.467-0.027 5.791-4.684 10.479-10.437 10.498zM473.164 788.343l-96.916-113.713c0 0 193.669 0 193.669 0-0.095-2.844-0.186-5.693-0.186-8.564 0-20.302 2.636-39.944 7.119-58.857 0 0-80.426 0-80.426 0v-58.937h88.136c0 0 0 32.882 0 32.882 9.853-27.777 24.144-53.445 42.424-75.78 0 0 0-55.588 0-55.588s64.216 0 64.216 0c22.907-13.964 48.113-24.443 75.044-30.511 0 0-46.118-99.628-46.118-99.628-3.205-10.578-18.842-38.92-52.474-38.92 0 0-264.564 0-264.564 0 2.488-8.518 4.263-14.567 5.124-17.548 0.027-0.046 0.049-0.102 0.076-0.152 0.588-1.244 1.608-3.235 3.011-5.693 2.822-4.923 7.308-11.7 13.183-18.159 12.227-13.115 27.572-23.965 51.014-24.094 0 0 144.6 0 144.6 0 58.357 0 111.142 0 111.142 0 18.026 0 32.65-14.689 32.65-32.821 0-18.113-14.624-32.817-32.65-32.817 0 0-211.145 0-255.742 0 0 0-0.372 0-0.372 0-46.061 0-79.572 23.874-98.862 45.454-19.733 21.853-28.005 42.299-28.949 44.476 0 0-1.107 3.178-1.107 3.178s-141.885 485.691-152.8 523.101c-5.389 18.735-11.203 28.539-15.88 32.563-4.559 3.918-10.6 7.475-29.787 7.733 0 0-113.228 0-113.228 0-18.022 0-32.647 14.7-32.647 32.825 0 18.144 14.624 32.825 32.647 32.825 0 0 113.228 0 113.228 0 28.289 0.258 54.621-7.179 73.629-24.739 18.864-17.431 27.803-39.542 34.676-62.695 2.977-10.202 15.682-53.711 32.59-111.578 0.22 0.281 0.368 0.588 0.595 0.857 0 0 159.141 186.69 159.141 186.69 6.22 7.308 15.231 11.45 24.792 11.45 9.557 0 18.55-4.142 24.788-11.45 0 0 56.309-66.059 56.309-66.059 1.855 1.236 3.849 2.321 6.004 3.178 0 0 63.833 25.623 63.833 25.623-32.267-41.002-52.273-92.187-54.177-148.059 0 0-96.757 113.527-96.757 113.527zM626.984 348.168h32.377l27.295 58.944h-59.673v-58.944zM496.424 348.168h88.136v58.944h-88.136v-58.944zM496.424 449.786h88.136v55.8h-88.136v-55.8zM396.478 349.26c1.054-0.614 2.317-1.092 3.588-1.092 0 0 53.919 0 53.919 0v58.944h-75.579c0 0 18.072-57.852 18.072-57.852zM365.075 449.786h88.91v55.8h-106.337l17.427-55.8zM318.779 598.043c0 0 15.542-49.77 15.542-49.77h119.664v58.937c0 0-137.489 0-137.489 0 0.478-2.496 1.198-5.541 2.283-9.167zM570.076 674.63c0 0-0.159 0-0.159 0 0 0.061 0 0.125 0.004 0.186 0 0 0.155-0.186 0.155-0.186zM458.881 143.277c32.677 0 59.168-26.639 59.168-59.502 0-32.855-26.491-59.491-59.168-59.491-32.669 0-59.161 26.635-59.161 59.491 0 32.863 26.491 59.502 59.161 59.502zM654.738 143.277c32.677 0 59.168-26.639 59.168-59.502 0-32.855-26.491-59.491-59.168-59.491-32.669 0-59.161 26.635-59.161 59.491 0 32.863 26.491 59.502 59.161 59.502z" />
<glyph unicode="&#xe604;" d="M318.384 957.914c20.863 0 41.711-8.628 57.564-25.873 0 0 389.393-423.579 389.393-423.579 31.418-34.175 31.418-89.331 0-123.513 0 0-389.393-423.561-389.393-423.561-31.558-34.338-82.936-34.535-114.722-0.429-31.79 34.095-31.979 89.589-0.394 123.931 0 0 332.618 361.81 332.618 361.81s-332.618 361.829-332.618 361.829c-31.585 34.342-31.395 89.835 0.394 123.934 15.815 16.972 36.492 25.452 57.158 25.452z" />
<glyph unicode="&#xe605;" d="M984.895 767.169c0 0-696.286 0-696.286 0-22.68 0-40.941 17.882-40.941 39.894 0 22.096 18.261 39.94 40.941 39.94 0 0 696.286 0 696.286 0 22.619 0 40.96-17.844 40.96-39.94 0-22.012-18.341-39.894-40.96-39.894zM288.631 607.585c0 0 696.282 0 696.282 0 22.619 0 40.979-17.806 40.979-39.894 0-21.97-18.36-39.932-40.979-39.932 0 0-696.282 0-696.282 0-22.702 0-40.983 17.962-40.983 39.932 0 22.088 18.28 39.894 40.983 39.894zM288.631 368.211c0 0 696.282 0 696.282 0 22.638 0 40.918-17.806 40.918-39.86s-18.28-39.932-40.918-39.932c0 0-696.282 0-696.282 0-22.623 0-41.002 17.878-41.002 39.932s18.379 39.86 41.002 39.86zM124.773 9.144c0 0-81.916 0-81.916 0-22.566 0-40.964 17.924-40.964 39.902 0 0 0 79.785 0 79.785 0 21.982 18.398 39.902 40.964 39.902 0 0 81.916 0 81.916 0 22.558 0 40.956-17.92 40.956-39.902 0 0 0-79.785 0-79.785 0-21.978-18.398-39.902-40.956-39.902zM124.773 248.525c0 0-81.916 0-81.916 0-22.566 0-40.964 17.92-40.964 39.894 0 0 0 79.792 0 79.792 0 21.974 18.398 39.894 40.964 39.894 0 0 81.916 0 81.916 0 22.558 0 40.956-17.92 40.956-39.894 0 0 0-79.792 0-79.792 0-21.974-18.398-39.894-40.956-39.894zM124.773 487.898c0 0-81.916 0-81.916 0-22.566 0-40.964 17.92-40.964 39.898 0 0 0 79.789 0 79.789 0 21.978 18.398 39.898 40.964 39.898 0 0 81.916 0 81.916 0 22.558 0 40.956-17.92 40.956-39.898 0 0 0-79.789 0-79.789 0-21.978-18.398-39.898-40.956-39.898zM124.773 727.279c0 0-81.916 0-81.916 0-22.566 0-40.964 17.92-40.964 39.89 0 0 0 79.796 0 79.796 0 21.97 18.398 39.89 40.964 39.89 0 0 81.916 0 81.916 0 22.558 0 40.956-17.92 40.956-39.89 0 0 0-79.796 0-79.796 0-21.97-18.398-39.89-40.956-39.89zM288.609 128.872c0 0 696.263 0 696.263 0 22.661 0 40.941-17.92 40.941-39.894 0-22.054-18.28-39.856-40.941-39.856 0 0-696.263 0-696.263 0-22.661 0-40.941 17.802-40.941 39.856 0 21.974 18.28 39.894 40.941 39.894z" />
<glyph unicode="&#xe606;" d="M510.934-62.866c-282.779 0-512.019 229.236-512.019 512.015s229.239 512.015 512.019 512.015c282.776 0 512.015-229.236 512.015-512.015s-229.239-512.015-512.015-512.015zM512.918 673.978c-123.707 0-223.987-100.284-223.987-223.987 0-123.707 100.28-223.991 223.987-223.991s223.991 100.284 223.991 223.991c0 123.703-100.284 223.987-223.991 223.987z" />
<glyph unicode="&#xe607;" d="M510.506 958.343c-282.874 0-512.186-229.312-512.186-512.182 0-282.878 229.312-512.182 512.186-512.182 282.871 0 512.178 229.304 512.178 512.182 0 282.871-229.308 512.182-512.178 512.182zM546.224 47.407c0 0 0 20.010 0 20.010 0 19.752-16.020 35.692-35.703 35.692-19.756 0-35.692-15.94-35.692-35.692 0 0 0-20.010 0-20.010-192.425 17.089-345.968 170.629-363.076 363.054 0 0 20.010 0 20.010 0 19.733 0 35.658 15.997 35.658 35.715 0 19.737-15.925 35.662-35.658 35.662 0 0-20.010 0-20.010 0 17.089 192.425 170.651 345.979 363.076 363.069 0 0 0-20.025 0-20.025 0-19.665 15.936-35.677 35.692-35.677 19.684 0 35.703 16.012 35.703 35.677 0 0 0 20.025 0 20.025 192.379-17.105 345.907-170.614 363.035-362.985 0 0-20.010 0-20.010 0-19.706 0-35.741-16.043-35.741-35.76 0-19.703 16.035-35.662 35.741-35.662 0 0 20.010 0 20.010 0-17.093-192.421-170.614-345.987-363.035-363.091zM585.933 445.167c0 0.326 0.099 0.645 0.099 0.994 0 28.069-15.493 52.277-38.233 65.308 0 0-9.227 208.456-9.227 208.456-0.485 9.986-8.658 27.895-28.243 27.895-19.596 0-27.618-17.909-28.224-27.895 0 0-10.722-209.45-10.722-209.45-21.751-13.255-36.405-36.985-36.405-64.315 0-41.715 33.811-75.529 75.529-75.529 2.021 0 3.906 0.425 5.875 0.588 0 0 169.783-151.874 169.783-151.874 7.82-6.876 28.535-12.5 46.675 5.64 18.163 18.148 12.383 38.738 5.647 46.622 0 0-152.553 173.56-152.553 173.56z" />
<glyph unicode="&#xe608;" d="M707.542 594.682c0 0 198.372-186.463 198.372-186.463 63.898-59.984-75.681-113.785-75.681-261.973 0-112.594 193.289-236.464 193.289-45.431 0 0 0 221.81 0 221.81 0 222.891-315.98 272.058-315.98 272.058zM809.366 407.821c-23.48 22.058-89.957 84.503-144.657 135.919 1.566 3.99 2.723 8.162 2.723 12.663 0 0-0.076 0-0.076 0-0.174 75.617-21.314 163.279-62.062 236.214-40.11 71.623-104.239 134.576-195.106 135.301-81.981 0.656-141.354-40.095-173.371-86.862-32.635-46.99-44.017-98.372-44.286-136.033 0-20.499 17.7-37.194 39.614-37.194 21.83 0 39.526 16.695 39.526 37.194-0.247 22.752 8.988 64.262 31.149 95.031 22.873 31.061 52.474 52.941 107.368 53.589 45.913 0.8 90.616-34.615 125.125-95.717 33.83-59.798 53.172-139.366 52.903-201.523 0-0.038 0.015-0.076 0.015-0.076-0.269-7.98-0.728-15.129-1.388-20.135 18.705-11.613 31.046-31.494 31.046-54.135 0-35.844-30.948-64.952-69.207-64.952-38.256 0-69.207 29.108-69.207 64.952 0 23.146 12.963 43.327 32.358 54.822 10.225 28.266 24.197 83.498 2.34 148.188 0 0-39.974 37.626-39.974 37.626-56.149 52.721-111.115 3.447-111.115 3.447s-353.31-331.746-353.31-331.746c-37.038-34.801 32.339-156.35 154.981-271.44 122.531-115.136 251.984-180.307 289.045-145.507 0 0 333.464 313.101 351.198 329.747 17.738 16.665 46.744 60.822 4.369 100.625z" />
<glyph unicode="&#xe609;" d="M984.614 178.969c0 0-39.155 0-39.155 0-9.656 70.375-67.576 124.871-138.077 124.871-70.466 0-128.387-54.458-138.081-124.833-21.572 0.159-39.151 18.394-39.151 40.816 0 0 0 408.527 0 408.527 0 22.498 17.696 40.846 39.386 40.846 0 0 177.232 0 177.232 0 28.922 0 41.078-18.349 59.073-40.846 0 0 88-121.765 88-121.765s30.155-43.801 30.155-82.496c0-38.707 0-204.265 0-204.265 0-22.505-17.689-40.854-39.382-40.854zM942.729 458.794c0 0-82.925 119.049-82.925 119.049s-8.806 9.648-15.148 9.648c0 0-96.351 0-96.351 0v-163.404c0 0 209.734 0 209.734 0 0 10.206-7.964 23.495-15.311 34.706zM551.378 178.969c0 0-157.302 0-157.302 0-9.656 70.375-67.58 124.871-138.081 124.871s-128.421-54.496-138.077-124.871c0 0-78.537 0-78.537 0-21.69 0-39.386 18.349-39.386 40.854 0 0 0 571.931 0 571.931 0 22.501 17.696 40.858 39.386 40.858 0 0 511.996 0 511.996 0 21.697 0 39.386-18.356 39.386-40.858 0 0 0-571.931 0-571.931 0-22.505-17.689-40.854-39.386-40.854zM255.996 253.011c50.305 0 91.075-42.287 91.075-94.466 0-52.186-40.77-94.473-91.075-94.473-50.309 0-91.075 42.287-91.075 94.473 0 52.178 40.767 94.466 91.075 94.466zM807.382 253.011c50.309 0 91.079-42.287 91.079-94.466 0-52.186-40.77-94.473-91.079-94.473-50.305 0-91.075 42.287-91.075 94.473 0 52.178 40.77 94.466 91.075 94.466z" />
<glyph unicode="&#xe60a;" d="M510.316 961.923c-282.817 0-512.080-229.262-512.080-512.083 0-282.814 229.262-512.076 512.080-512.076 282.814 0 512.080 229.262 512.080 512.076 0 282.821-229.266 512.083-512.080 512.083zM741.338 274.246c0 0-55.467-55.429-55.467-55.429-10.164-10.191-26.753-10.191-36.936 0 0 0-138.604 138.559-138.604 138.559s-138.597-138.559-138.597-138.559c-10.168-10.191-26.772-10.191-36.936 0.080 0 0-55.508 55.349-55.508 55.349-10.122 10.221-10.122 26.734 0 36.993 0 0 138.6 138.566 138.6 138.566s-138.559 138.559-138.559 138.559c-10.149 10.221-10.149 26.848 0 36.955 0 0 55.467 55.47 55.467 55.47 10.164 10.259 26.787 10.259 36.936 0 0 0 138.581-138.6 138.581-138.6s138.597 138.6 138.597 138.6c10.206 10.259 26.795 10.259 36.925 0 0 0 55.459-55.387 55.459-55.387 10.168-10.191 10.168-26.817 0.042-37.038 0 0-138.581-138.559-138.581-138.559s138.581-138.566 138.581-138.566c10.126-10.259 10.126-26.772 0-36.993z" />
<glyph unicode="&#xe60b;" d="M510.316 961.923c-282.817 0-512.080-229.262-512.080-512.083 0-282.814 229.262-512.076 512.080-512.076s512.080 229.262 512.080 512.076c0 282.821-229.262 512.083-512.080 512.083zM779.529 608.302c0 0-274.58-404.939-274.58-404.939-8.253-12.095-21.136-20.142-33.917-20.142-12.743 0-26.95 6.99-35.988 15.967 0 0-161.132 161.2-161.132 161.2-10.976 11.002-10.976 28.839 0 39.811 0 0 39.807 39.89 39.807 39.89 10.987 10.881 28.843 10.881 39.792 0 0 0 104.797-104.842 104.797-104.842s228.018 336.289 228.018 336.289c8.704 12.8 26.283 16.122 39.128 7.452 0 0 46.581-31.615 46.581-31.615 12.819-8.7 16.194-26.26 7.494-39.071z" />
<glyph unicode="&#xe60c;" d="M832 960c0 0-640 0-640 0-106.079 0-192-85.921-192-192 0 0 0-640 0-640 0-106.079 85.921-192 192-192 0 0 640 0 640 0 106.079 0 192 85.921 192 192 0 0 0 640 0 640 0 106.079-85.921 192-192 192zM805.964 408.538h-95.808v-354.615h-159.998v354.615h-62.081v119.459h62.081c0 0 0 76.079 0 76.079 0 99.768 41.419 159.001 158.997 159.001 0 0 119.156 0 119.156 0v-119.042c0 0-69.196 0-69.196 0-45.769 0-48.769-17.036-48.769-48.959 0 0-0.19-67.080-0.19-67.080h108.844l-13.035-119.459z" />
<glyph unicode="&#xe60d;" d="M874.868 81.507c199.98 202.706 199.98 531.274-0.008 733.992-200.037 202.665-524.258 202.672-724.26-0.015-200.002-202.684-199.995-531.247-0.008-733.969 200.033-202.665 524.254-202.672 724.275-0.008zM193.801 771.705c176.466 178.127 461.369 178.119 637.808-0.038 175.806-178.809 175.809-467.528 0.030-646.353-176.45-178.13-461.358-178.127-637.797 0.038-175.806 178.802-175.809 467.524-0.042 646.353zM261.89 188.405c0.466-0.368 0.88-0.804 1.369-1.138 1.202-0.815 2.469-1.434 3.736-2.056 0.523-0.265 0.986-0.584 1.521-0.812 1.373-0.576 2.791-0.96 4.217-1.335 0.516-0.137 1.005-0.353 1.532-0.459 2.059-0.417 4.142-0.618 6.243-0.603 0 0 172.756 0 172.756 0 16.877-0.011 30.568 13.858 30.58 30.993 0 17.097-13.68 30.959-30.572 30.982 0 0-99.157-0.008-99.157-0.008l360.429 365.261c0 0 0.008-100.47 0.008-100.47 0.015-17.127 13.699-30.989 30.572-30.989 16.904 0.015 30.587 13.881 30.576 30.989 0 0 0.004 175.222 0.004 175.222 0 0.019 0.011 0.034 0.008 0.053 0 0.558-0.133 1.081-0.159 1.631-0.076 1.468-0.159 2.943-0.44 4.392-0.224 1.168-0.633 2.268-0.99 3.387-0.25 0.793-0.413 1.612-0.732 2.382-0.561 1.396-1.305 2.678-2.052 3.956-0.262 0.44-0.448 0.933-0.732 1.369-2.26 3.444-5.173 6.398-8.571 8.689-0.539 0.36-1.123 0.595-1.688 0.925-1.161 0.686-2.298 1.373-3.55 1.9-0.899 0.372-1.824 0.573-2.742 0.865-0.986 0.3-1.923 0.675-2.951 0.88-1.764 0.353-3.554 0.508-5.348 0.546-0.209 0.008-0.417 0.072-0.633 0.068-0.019 0-0.030-0.011-0.049-0.004 0 0-172.916 0.004-172.916 0.004-8.435-0.015-16.065-3.493-21.591-9.091-5.533-5.605-8.962-13.339-8.977-21.887 0.004-17.116 13.706-31.004 30.595-31.004 0 0 99.108-0.004 99.108-0.004l-360.402-365.234c0 0-0.004 100.439-0.004 100.439 0 17.116-13.703 31.001-30.595 31.001-8.435-0.008-16.065-3.485-21.591-9.087-5.533-5.609-8.962-13.339-8.977-21.891 0 0 0-175.157 0-175.157 0-2.116 0.212-4.21 0.626-6.299 0.083-0.402 0.247-0.774 0.341-1.172 0.375-1.566 0.8-3.125 1.426-4.635 0.182-0.436 0.448-0.827 0.652-1.263 0.656-1.384 1.312-2.757 2.185-4.058 0.247-0.364 0.584-0.69 0.853-1.058 0.884-1.217 1.767-2.442 2.867-3.557 1.001-1.013 2.116-1.813 3.216-2.662z" />
<glyph unicode="&#xe60e;" d="M1012.251 435.708c0 0-139.712 138.361-139.712 138.361s0 310.773 0 310.773c0 21.906-18.026 39.762-40.133 39.743 0 0-40.129 0-40.129 0-22.145 0-40.133-17.837-40.133-39.724 0 0 0-191.568 0-191.568s-212.453 210.39-212.453 210.39c-15.66 15.504-41.074 15.504-56.73 0 0 0-471.252-466.675-471.252-466.675-15.656-15.504-15.656-40.672 0-56.256 15.656-15.504 41.131-15.504 56.786 0 0 0 442.819 438.594 442.819 438.594s444.132-439.819 444.132-439.819c7.82-7.76 18.087-11.621 28.357-11.621 10.267 0 20.537 3.861 28.372 11.621 15.735 15.508 15.735 40.676 0.076 56.18zM69.905 309.206c0 0 0-218.578 0-218.578 0-65.843 53.908-119.228 120.396-119.228 0 0 642.105 0 642.105 0 66.488 0 120.396 53.385 120.396 119.228 0 0 0 218.578 0 218.578l-441.446 437.157-441.45-437.157zM631.747 329.076c0 0 0-238.448 0-238.448 0-21.91-18.007-39.743-40.129-39.743 0 0-160.529 0-160.529 0-22.122 0-40.129 17.833-40.129 39.743 0 0 0 238.448 0 238.448 0 21.91 18.007 39.743 40.129 39.743 0 0 160.529 0 160.529 0 22.122 0 40.129-17.833 40.129-39.743z" />
<glyph unicode="&#xe60f;" d="M511.374 960.671c-282.798 0-512.046-229.247-512.046-512.046 0-282.795 229.247-512.042 512.046-512.042 282.795 0 512.042 229.247 512.042 512.042 0 282.798-229.247 512.046-512.042 512.046zM617.965 167.079c-26.374-10.414-47.351-18.288-63.097-23.749-15.682-5.458-33.906-8.211-54.647-8.211-31.922 0-56.768 7.813-74.441 23.385-17.696 15.561-26.522 35.309-26.522 59.267 0 9.292 0.656 18.819 1.968 28.554 1.331 9.69 3.474 20.635 6.391 32.889 0 0 32.958 116.543 32.958 116.543 2.943 11.173 5.439 21.777 7.43 31.702 1.968 9.993 2.958 19.134 2.958 27.409 0 14.837-3.068 25.255-9.182 31.073-6.163 5.886-17.886 8.765-35.199 8.765-8.533 0-17.29-1.293-26.245-3.914-8.913-2.693-16.634-5.211-22.987-7.642 0 0 8.761 35.939 8.761 35.939 21.568 8.784 42.227 16.301 61.975 22.539 19.706 6.288 38.332 9.421 55.903 9.421 31.68 0 56.13-7.665 73.356-22.964 17.105-15.28 25.759-35.199 25.759-59.669 0-5.059-0.637-13.987-1.775-26.749-1.21-12.789-3.429-24.47-6.629-35.116 0 0-32.806-116.16-32.806-116.16-2.685-9.288-5.078-19.979-7.217-31.937-2.135-11.916-3.193-21.022-3.193-27.117 0-15.47 3.429-25.945 10.369-31.535 6.88-5.609 18.838-8.427 35.855-8.427 7.983 0 16.998 1.441 27.136 4.214 10.073 2.799 17.374 5.253 21.925 7.365 0 0-8.803-35.874-8.803-35.874zM612.166 638.631c-15.303-14.241-33.739-21.333-55.288-21.333-21.504 0-40.042 7.092-55.497 21.333-15.345 14.222-23.112 31.456-23.112 51.689 0 20.169 7.767 37.547 23.112 51.879 15.455 14.393 33.993 21.542 55.497 21.542 21.55 0 39.985-7.149 55.288-21.542 15.299-14.332 22.964-31.71 22.964-51.879 0-20.233-7.665-37.467-22.964-51.689z" />
<glyph unicode="&#xe610;" d="M600.694 92.562c0 0-177.315 0-177.315 0-16.21 0-29.499-13.21-29.499-29.533 0 0 0-59.104 0-59.104 0-16.369 13.289-29.654 29.499-29.654 0 0 23.738 0 23.738 0 12.88-22.721 36.944-38.195 64.922-38.195s52.042 15.474 64.922 38.195c0 0 23.734 0 23.734 0 16.213 0 29.503 13.285 29.503 29.654 0 0 0 59.104 0 59.104 0 16.323-13.289 29.533-29.503 29.533zM394.839 177.774c0 0 0-16.213 0-16.213 0-16.229 13.175-29.339 29.275-29.339 0 0 175.847 0 175.847 0 16.1 0 29.275 13.111 29.275 29.339 0 0 0 16.039 0 16.039 0 66.825 111.73 140.371 111.73 272.555 0 126.574-102.499 229.186-228.928 229.186s-228.932-102.612-228.932-229.186c0-130.025 111.734-205.729 111.734-272.38zM511.841 603.079c29.006 0 55.967-8.184 78.909-22.278-2.81 0.178-5.632 0.429-8.476 0.429-107.619 0-194.757-86.134-194.757-192.391 0-6.603 0.345-13.27 0.982-19.699-17.139 24.182-27.295 53.487-27.295 85.22 0 82.106 67.447 148.719 150.638 148.719zM512.038 762.838c21.732 0 39.424 17.711 39.424 39.47 0 0 0 118.306 0 118.306 0 21.754-17.692 39.375-39.424 39.375-21.807 0-39.424-17.62-39.424-39.375 0 0 0-118.306 0-118.306 0-21.758 17.617-39.47 39.424-39.47zM984.629 486.836c0 0-118.158 0-118.158 0-21.747 0-39.363-17.579-39.363-39.428 0-21.777 17.617-39.435 39.363-39.435 0 0 118.158 0 118.158 0 21.754 0 39.367 17.658 39.367 39.435 0 21.849-17.613 39.428-39.367 39.428zM196.911 447.408c0 21.849-17.632 39.428-39.386 39.428 0 0-118.139 0-118.139 0-21.747 0-39.386-17.579-39.386-39.428 0-21.777 17.639-39.435 39.386-39.435 0 0 118.139 0 118.139 0 21.754 0 39.386 17.658 39.386 39.435zM790.547 224.385c-15.383 15.318-40.308 15.318-55.698 0-15.379-15.481-15.379-40.433 0-55.835 0 0 83.547-83.63 83.547-83.63 7.688-7.703 17.768-11.556 27.845-11.556s20.158 3.853 27.849 11.556c15.383 15.402 15.383 40.349 0 55.835 0 0-83.543 83.63-83.543 83.63zM233.548 670.462c7.65-7.718 17.734-11.548 27.792-11.548 10.092 0 20.188 3.846 27.887 11.548 15.417 15.368 15.341 40.38 0 55.74 0 0-83.566 83.63-83.566 83.63-15.349 15.462-40.327 15.383-55.675 0-15.424-15.36-15.424-40.349 0-55.736 0 0 83.562-83.634 83.562-83.634zM233.487 224.438c0 0-83.539-83.63-83.539-83.63-15.387-15.478-15.387-40.448 0-55.854 7.695-7.699 17.768-11.529 27.845-11.529 10.081 0 20.158 3.831 27.849 11.529 0 0 83.543 83.63 83.543 83.63 15.383 15.402 15.383 40.372 0 55.854-15.387 15.307-40.308 15.307-55.698 0zM762.645 658.936c10.077 0 20.15 3.842 27.883 11.526 0 0 83.539 83.634 83.539 83.634 15.349 15.462 15.349 40.376-0.076 55.831-15.349 15.368-40.232 15.368-55.675-0.095 0 0-83.539-83.63-83.539-83.63-15.368-15.36-15.368-40.296 0-55.74 7.71-7.684 17.787-11.526 27.868-11.526z" />
<glyph unicode="&#xe611;" d="M718.355-65.676v307.12h307.204v-307.12h-307.204zM718.355 599.757h307.204v-307.128h-307.204v307.128zM718.355 958.062h307.204v-307.12h-307.204v307.12zM359.955 241.444h307.2v-307.12h-307.2v307.12zM359.955 599.757h307.2v-307.128h-307.2v307.128zM359.955 958.062h307.2v-307.12h-307.2v307.12zM1.559 241.444h307.196v-307.12h-307.196v307.12zM1.559 599.757h307.196v-307.128h-307.196v307.128zM1.559 958.062h307.196v-307.12h-307.196v307.12z" />
<glyph unicode="&#xe612;" d="M909.589-62.437h-548.166v307.204h647.832v-307.204h-99.666zM710.258 295.959h-348.835v307.204h647.832v-307.204h-298.997zM710.258 654.366h-348.835v307.196h647.832v-307.196h-298.997zM12.584 244.766h299.004v-307.204h-299.004v307.204zM12.584 603.163h299.004v-307.204h-299.004v307.204zM12.584 961.563h299.004v-307.196h-299.004v307.196z" />
<glyph unicode="&#xe613;" d="M794.798-63.037c0 0-565.267 0-565.267 0-66.894 0-121.128 52.948-121.128 118.253 0 0 0 394.221 0 394.221 0 65.301 54.234 118.253 121.128 118.253 0 0 565.267 0 565.267 0 66.894 0 121.132-52.952 121.132-118.253 0 0 0-394.221 0-394.221 0-65.305-54.238-118.253-121.132-118.253zM512.167 370.589c-44.593 0-80.752-35.298-80.752-78.844 0-29.104 16.342-54.249 40.376-67.914 0 0 0-89.767 0-89.767 0-21.732 18.117-39.424 40.376-39.424 22.263 0 40.38 17.692 40.38 39.424 0 0 0 89.767 0 89.767 24.030 13.665 40.372 38.81 40.372 67.914 0 43.547-36.155 78.844-80.752 78.844zM673.652 649.808c0.102 63.238-16.38 112.936-42.17 144.058-26.123 30.724-60.154 49.061-119.292 49.793-59.070-0.732-93.097-19.153-119.3-50.104-25.941-31.376-42.325-81.169-42.246-143.747 0 0 0-42.712 0-42.712h-121.113c0 0 0 42.712 0 42.712 0.083 81.73 20.605 158.375 68.71 217.49 47.79 59.438 124.814 95.391 213.948 94.587 88.891 0.804 165.918-34.744 213.785-94.106 48.189-59.035 68.71-135.76 68.786-217.972 0 0 0-42.712 0-42.712h-121.109c0 0 0 42.712 0 42.712z" />
<glyph unicode="&#xe614;" d="M907.048 809.95c0 0-788.427 0-788.427 0-65.312 0-118.268-53.984-118.268-120.57 0 0 0-482.293 0-482.293 0-66.575 52.956-120.567 118.268-120.567 0 0 788.427 0 788.427 0 65.308 0 118.261 53.991 118.261 120.567 0 0 0 482.293 0 482.293 0 66.587-52.952 120.57-118.261 120.57zM689 452.813l252.541-263.638-308.038 224.343-120.688-80.149-120.688 80.149-308.046-224.343 252.587 263.638-305.402 242.711 481.549-264.814 481.561 264.814-305.376-242.711z" />
<glyph unicode="&#xe615;" d="M615.037 334.078c0 140.307 165.27 336.001 165.27 432.155 0 104.653-84.844 189.535-189.539 189.535-104.691 0-189.539-84.882-189.539-189.535 0-104.695 165.27-291.347 165.27-432.155 0 0 48.538 0 48.538 0zM507.464 766.233c0 45.997 37.304 83.304 83.304 83.304s83.308-37.308 83.308-83.304c0-46.004-37.308-83.312-83.308-83.312s-83.304 37.308-83.304 83.312zM821.347 858.688c9.959-24.766 15.921-51.496 17.385-79.421 0 0 106.5 53.271 106.5 53.271v-729.695l-160.082-80.035c0 0-47.229 20.23-47.229 20.23-32.999 183.656-140.728 216.576-225.921 216.576-21.386 0-38.116-24.845-78.768-1.961-68.657 38.654-46.615 144.771-157.541 150.96-65.726 65.729-148.806 78.73-196.923 80.156 0 0 0 351.767 0 351.767s165.884-71.077 165.884-71.077c9.925-4.27 20.499-6.383 31.039-6.383 12.076 0 24.155 2.769 35.229 8.306 0 0 32.309 16.156 32.309 16.156 3.273 38.116 15.193 73.652 33.773 104.96 0 0-101.312-50.654-101.312-50.654l-275.691 118.154v-905.846l275.691-118.154 236.309 118.154 275.691-118.154 236.309 118.154v905.846c0 0-202.653-101.312-202.653-101.312z" />
<glyph unicode="&#xe616;" d="M874.086 810.030c-199.98 199.983-524.208 199.983-724.196 0-199.98-199.983-199.972-524.212 0-724.196 199.983-199.976 524.216-199.976 724.192 0 199.987 199.983 199.987 524.22 0.004 724.196zM250.637 382.563c-14.389-0.015-26.131 11.727-26.063 26.18 0 0-0.11 78.385-0.11 78.385 0.068 14.389 11.749 26.059 26.161 26.158 0 0 522.669-0.049 522.669-0.049 14.48 0.042 26.203-11.696 26.116-26.116 0 0 0.046-78.378 0.046-78.378-0.015-14.397-11.772-26.146-26.154-26.218 0 0-522.665 0.038-522.665 0.038z" />
<glyph unicode="&#xe617;" d="M905.235 305.296c0 0-93.419 0-93.419 0 0.47-5.294-0.47-10.779-3.114-15.838 0 0-54.185-102.123-54.185-102.123-2.958-0.861-29.313-59.445-93.154-63.856-5.306 0-10.76 0.592-16.229 1.775-15.451 3.709-26.707 11.12-34.896 20.116-8.010-12.023-35.165-57.044-90.867-60.966-5.302 0-10.691 0.595-16.149 1.87-30.451 7.289-44.768 28.786-50.843 48.795-12.914-5.833-28.376-9.861-46.691-10.122-2.037 0-4.119 0.102-6.497 0.174-8.806 0.69-21.849 1.521-35.191 10.82-10.202 7.149-17.070 19.168-19.668 32.552-32.389-12.106-72.010-19.156-121.708-19.156-1.081 0-2.154 0-3.231 0.023 0 0-180.569 0-180.569 0-10.418 0-20.491 4.054-27.841 11.332-7.346 7.282-11.651 17.359-11.651 27.591 0 0 0 362.367 0 362.367 0 11.355 4.961 21.936 13.494 29.381 0 0 145.15 125.698 145.15 125.698 47.343 37.577 74.414 62.722 120.221 64.664 18.69 0 35.343-5.844 50.309-13.301 2.348-1.172 4.517-2.552 6.516-4.092 16.813 29.613 46.459 59.582 97.629 59.582 0 0 472.584 0 472.584 0 65.229 0 118.143-52.421 118.143-117.066 0 0 0-117.070 0-117.070s0-156.080 0-156.080c0-64.656-52.914-117.070-118.143-117.070zM658.094 181.316c1.24-0.254 2.234-0.33 3.269-0.33 5.659-0.686 17.848 5.928 27.69 16.255 9.231 9.28 15.003 18.504 14.924 18.33 0 0 47.533 89.725 47.533 89.725s-61.952 0-61.952 0c0.269-4.726-0.501-9.569-2.734-14.135 0 0-37.338-76.466-37.338-76.466-0.391-2.382-1.001-6.406-0.925-11.359 1.077-15.838 2.734-20.996 9.535-22.020zM516.225 142.313c1.077-0.254 2.112-0.349 3.148-0.349 5.738-0.667 17.928 5.932 27.656 16.251 9.307 9.277 15.072 18.485 15.038 18.333 0 0 53.225 100.617 53.225 100.617 0.368 0.69 0.777 1.343 1.191 1.991 0 0 12.77 26.139 12.77 26.139s-62.638 0-62.638 0c0.565-5.215-0.231-10.638-2.742-15.686 0 0-56.339-113.998-56.339-113.998-0.429-2.374-1.001-6.375-1.001-11.294 1.115-15.842 2.772-20.996 9.694-22.005zM393.963 175.821c0.842-0.281 3.186-1.161 7.726-1.293 1.426 0 2.731 0 4.001 0 22.983-0.193 38.423 11.685 47.472 21.61 0 0 0.338 0.952 0.338 0.952l48.139 97.352c0 0-3.068-2.719-3.068-2.719-35.002-29.032-57.993-62.297-98.149-92.687-1.942-1.472-3.952-2.898-5.966-4.316-0.937-5.154-1.343-9.307-1.343-12.322 0-3.709 0.576-5.734 0.85-6.576zM307.928 380.518c-19.232-10.077-43.072-2.875-53.343 16.164-10.153 19.046-2.886 42.659 16.346 52.827 0 0 43.573 22.911 43.573 22.911v106.026c0 0 0 104.937 0 104.937-7.13-0.679-14.526 0.531-21.383 3.975-9.231 4.574-13.077 4.995-14.924 4.995-2.31 1.946-23.499-7.278-69.109-46.050 0 0-130.996-113.33-130.996-113.33v-305.569c0 0 141.301 0 141.301 0 74.843 0.413 106.724 14.457 133.723 34.012 27.303 19.646 51.344 52.99 93.685 89.134 0 0 66.033 58.417 66.033 58.417 31.039 26.905 49.577 56.783 47.347 64.398-0.19 2.973-0.345 4.847-4.039 9.91-4.073 4.324-4.153 4.919-14.575 5.681-17.962 0.834-56.153-14.23-92.384-34.023 0 0-141.255-74.414-141.255-74.414zM905.235 734.534c0 0-472.584 0-472.584 0-21.728 0-39.386-17.503-39.386-39.018 0 0 551.356 0 551.356 0 0 21.515-17.651 39.018-39.386 39.018zM944.621 578.446h-551.356v-64.611c0 0 18.845 9.906 18.845 9.906 39.921 20.563 82.269 42.397 129.456 43.255 26.537 0.667 58.345-10.763 77.376-36.564 12.887-16.687 20.158-37.346 19.922-57.067-1.517-37.698-19.418-65.737-41.244-90.017 0 0 307.613 0 307.613 0 21.735 0 39.386 17.499 39.386 39.018 0 0 0 156.080 0 156.080z" />
<glyph unicode="&#xe618;" d="M876.134 247.52c-60.852 52.929-122.63 84.973-182.754 32.127 0 0-35.904-31.934-35.904-31.934-26.256-23.184-75.097-131.489-263.885 89.304-188.754 220.482-76.443 254.832-50.149 277.823 0 0 36.094 31.964 36.094 31.964 59.824 52.967 37.243 119.626-5.909 188.242 0 0-26.032 41.563-26.032 41.563-43.27 68.464-90.461 113.425-150.395 60.579 0 0-32.4-28.809-32.4-28.809-26.499-19.634-100.564-83.403-118.53-204.599-21.622-145.378 46.577-311.88 202.881-494.588 156.073-182.773 308.922-274.58 453.67-272.972 120.293 1.324 192.971 66.935 215.704 90.821 0 0 32.521 28.809 32.521 28.809 59.779 52.846 22.653 106.629-38.241 159.668 0 0-36.671 32.002-36.671 32.002z" />
<glyph unicode="&#xe619;" d="M875.782 80.672c-200.025-202.911-524.242-202.904-724.275 0.008-199.983 202.968-199.991 531.93 0.011 734.86 200.002 202.934 524.22 202.93 724.252 0.015 199.987-202.961 199.987-531.93 0.011-734.883zM832.52 771.671c-176.435 178.373-461.339 178.385-637.804 0.038-175.768-179.045-175.76-468.12 0.046-647.138 176.435-178.381 461.339-178.385 637.789-0.038 175.783 179.041 175.775 468.112-0.030 647.138zM733.863 262.815c0 0-16.323-14.177-16.323-14.177-11.412-11.753-47.893-44.043-108.271-44.696-72.651-0.789-149.371 44.392-227.711 134.341-78.454 89.911-112.682 171.858-101.831 243.409 9.019 59.639 46.194 91.026 59.491 100.69 0 0 16.266 14.173 16.266 14.173 30.083 26.010 53.768 3.884 75.488-29.81 0 0 13.065-20.457 13.065-20.457 21.659-33.769 32.992-66.575 2.966-92.642 0 0-18.113-15.732-18.113-15.732-13.202-11.313-69.571-28.217 25.168-136.723 94.758-108.662 119.273-55.36 132.453-43.949 0 0 18.019 15.713 18.019 15.713 30.181 26.010 61.19 10.236 91.735-15.811 0 0 18.405-15.747 18.405-15.747 30.565-26.104 49.198-52.573 19.194-78.583z" />
<glyph unicode="&#xe61a;" d="M874.086 810.030c-199.98 199.983-524.208 199.983-724.196 0-199.976-199.983-199.976-524.212 0.008-724.196 199.98-199.976 524.208-199.976 724.18 0 199.987 199.983 199.987 524.22 0.008 724.196zM551.181 160.411c0 0-78.408 0.027-78.408 0.027-14.397-0.019-26.127 11.708-26.123 26.112 0 0-0.034 195.99-0.034 195.99s-195.978 0.023-195.978 0.023c-14.389-0.015-26.131 11.727-26.055 26.18 0 0-0.118 78.385-0.118 78.385 0.068 14.389 11.746 26.059 26.161 26.158 0 0 195.982-0.027 195.982-0.027s0 195.956 0 195.956c0.053 14.404 11.81 26.158 26.135 26.131 0 0 78.438 0 78.438 0 14.45 0.064 26.203-11.685 26.123-26.112 0 0-0.011-195.997-0.011-195.997s196.005 0 196.005 0c14.473 0.042 26.203-11.696 26.112-26.116 0 0 0.046-78.378 0.046-78.378-0.011-14.397-11.772-26.146-26.158-26.218 0 0-195.967 0.015-195.967 0.015s0.011-195.971 0.011-195.971c-0.099-14.416-11.776-26.093-26.161-26.158z" />
<glyph unicode="&#xe61b;" d="M587.055 358.294c-86.194 0-156.080-59.923-156.080-133.875s69.886-133.875 156.080-133.875c86.194 0 156.084 59.923 156.084 133.875s-69.89 133.875-156.084 133.875zM328.632 275.301c-28.501 0-51.606-22.767-51.606-50.881 0-28.107 23.104-50.881 51.606-50.881 28.498 0 51.602 22.775 51.602 50.881 0 28.114-23.104 50.881-51.602 50.881zM845.483 275.301c-28.498 0-51.602-22.767-51.602-50.881 0-28.107 23.104-50.881 51.602-50.881s51.602 22.775 51.602 50.881c0 28.114-23.104 50.881-51.602 50.881zM149.716 479.331v-509.823h874.678v509.823h-874.678zM960.793 142.082c0 0-25.93-25.589-25.93-25.589-3.303 0.649-6.368 1.961-9.861 1.961-28.501 0-51.564-22.79-51.564-50.904 0-3.447 1.316-6.432 1.976-9.686 0 0-25.972-25.608-25.972-25.608h-524.773c0 0-25.938 25.566-25.938 25.566 0.66 3.258 1.984 6.281 1.984 9.728 0 28.114-23.101 50.881-51.598 50.881-3.501 0-6.527-1.305-9.827-1.953 0 0-25.972 25.619-25.972 25.619v164.667c0 0 25.938 25.581 25.938 25.581 3.296-0.649 6.36-1.953 9.861-1.953 28.498 0 51.56 22.79 51.56 50.897 0 3.447-1.32 6.44-1.98 9.694 0 0 25.972 25.6 25.972 25.6h524.773c0 0 25.938-25.566 25.938-25.566-0.656-3.25-1.98-6.281-1.98-9.728 0-28.107 23.101-50.881 51.602-50.881 3.493 0 6.519 1.305 9.819 1.953 0 0 25.972-25.619 25.972-25.619v-164.659zM182.336 538.161l1.472 5.014 460.284 248.612c0 0 35.176-10.149 35.176-10.149 1.005-3.14 1.358-6.428 3.068-9.436 13.665-24.682 44.999-33.709 70.042-20.203 3.026 1.665 5.086 4.229 7.608 6.356 0 0 35.256-10.149 35.256-10.149l80.172-144.422c0 0-10.289-34.714-10.289-34.714-3.14-0.978-6.474-1.305-9.546-2.97-11.651-6.288-19.414-16.509-23.488-27.94 0 0 152.307 0 152.307 0l-217.38 391.559-767.204-414.386 90.271-162.634c0 0 0 126.631 0 126.631 0 32.495 26.711 58.831 59.631 58.831 0 0 32.62 0 32.62 0zM709.477 666.002c-25.088-13.505-34.205-44.411-20.499-69.078 13.665-24.659 44.999-33.697 70-20.18 25.005 13.498 34.167 44.426 20.499 69.093-13.706 24.644-45.071 33.682-70 20.165zM442.357 616.365c-34.638-18.709-59.563-46.99-73.576-78.203 0 0 287.585 0 287.585 0-2.298 11.928-5.753 23.67-11.882 34.714-36.068 64.884-126.536 84.328-202.126 43.49z" />
<glyph unicode="&#xe61c;" d="M1002.090-7.016c0 0-34.342-34.285-34.342-34.285-28.452-28.41-74.559-28.41-103.026 0 0 0-183.99 183.819-183.99 183.819-23.23 23.188-27.485 58.125-12.811 85.637 0 0-34.558 34.513-34.558 34.513-66.685-52.706-150.907-84.252-242.567-84.252-216.132 0-391.301 174.956-391.301 390.823 0 215.878 175.168 390.823 391.301 390.823 216.144 0 391.305-174.945 391.305-390.823 0-91.549-31.592-175.669-84.366-242.278 0 0 34.551-34.505 34.551-34.505 27.553 14.681 62.574 10.445 85.8-12.754 0 0 184.005-183.819 184.005-183.819 28.433-28.41 28.433-74.487 0-102.897zM390.796 887.759c-176.155 0-318.923-142.571-318.923-318.521 0-175.938 142.768-318.51 318.923-318.51 176.166 0 318.93 142.571 318.93 318.51 0 175.95-142.765 318.521-318.93 318.521z" />
<glyph unicode="&#xe61d;" d="M1020.901 567.671c-4.87 15.113-17.821 26.154-33.394 28.441 0 0-303.669 44.552-303.669 44.552s-135.839 277.887-135.839 277.887c-13.938 28.524-60.253 28.524-74.191 0 0 0-135.839-277.887-135.839-277.887s-303.662-44.552-303.662-44.552c-15.58-2.287-28.532-13.327-33.398-28.441-4.866-15.136-0.804-31.721 10.464-42.841 0 0 219.747-216.299 219.747-216.299s-51.879-305.421-51.879-305.421c-2.651-15.671 3.736-31.516 16.456-40.869 12.773-9.383 29.658-10.566 43.584-3.178 0 0 271.622 144.194 271.622 144.194s271.622-144.194 271.622-144.194c6.064-3.212 12.675-4.794 19.263-4.794 8.56 0 17.105 2.693 24.326 7.972 12.72 9.353 19.107 25.198 16.452 40.869 0 0-51.871 305.421-51.871 305.421s219.739 216.299 219.739 216.299c11.279 11.12 15.333 27.705 10.468 42.841z" />
<glyph unicode="&#xe61e;" d="M511.42 966.929c-282.844-0.030-512.102-232.365-512.137-519.013 0.034-286.656 229.293-518.99 512.137-518.99 282.852 0 512.102 232.334 512.137 518.99-0.034 286.648-229.285 518.982-512.137 519.013zM511.42-9.159c-249.067 0.493-450.522 204.66-450.97 457.076 0.448 252.408 201.902 456.571 450.97 457.061 249.067-0.489 450.514-204.652 450.966-457.061-0.451-252.416-201.899-456.583-450.966-457.076zM870.271 452.088c-0.072 0.592-0.057 1.195-0.171 1.786-0.281 1.437-0.743 2.78-1.206 4.13-0.19 0.561-0.292 1.119-0.508 1.669-0.569 1.388-1.308 2.674-2.056 3.963-0.265 0.466-0.463 0.967-0.762 1.418-1.161 1.771-2.499 3.406-3.99 4.9 0 0-122.159 123.798-122.159 123.798-11.928 12.102-31.285 12.102-43.247 0-11.931-12.091-11.931-31.698 0-43.82 0 0 70.121-71.050 70.121-71.050h-509.728c0 0 70.102 71.050 70.102 71.050 11.935 12.121 11.935 31.729 0 43.82-11.962 12.102-31.315 12.102-43.243 0 0 0-122.258-123.9-122.258-123.9-0.019-0.015-0.034-0.015-0.046-0.034-0.391-0.391-0.66-0.857-1.028-1.267-0.967-1.092-1.938-2.196-2.753-3.421-0.652-0.986-1.13-2.059-1.661-3.102-0.375-0.743-0.831-1.437-1.145-2.211-0.573-1.388-0.944-2.829-1.305-4.267-0.129-0.497-0.338-0.982-0.444-1.494-0.8-4.054-0.8-8.234 0-12.288 0.129-0.633 0.379-1.225 0.55-1.858 0.338-1.32 0.667-2.617 1.183-3.891 0.375-0.903 0.887-1.71 1.339-2.571 0.485-0.918 0.887-1.858 1.472-2.738 0.997-1.509 2.154-2.901 3.394-4.221 0.148-0.148 0.247-0.349 0.402-0.501 0.015-0.011 0.030-0.011 0.042-0.030 0 0 122.266-123.912 122.266-123.912 5.973-6.038 13.797-9.045 21.61-9.045 7.824 0 15.648 3.008 21.618 9.045 11.943 12.102 11.943 31.744 0 43.846 0 0-70.076 71.020-70.076 71.020h509.683c0 0-70.076-71.020-70.076-71.020-11.943-12.102-11.943-31.744 0-43.846 5.973-6.038 13.797-9.045 21.614-9.045 7.82 0 15.641 3.008 21.614 9.045 0 0 122.216 123.855 122.216 123.855 1.479 1.498 2.791 3.133 3.959 4.904 0.224 0.341 0.364 0.724 0.573 1.070 0.831 1.377 1.616 2.784 2.226 4.297 0.178 0.44 0.262 0.91 0.417 1.365 0.508 1.453 0.997 2.89 1.289 4.434 0.083 0.44 0.068 0.906 0.133 1.358 0.228 1.502 0.459 2.996 0.459 4.57 0 1.437-0.231 2.799-0.421 4.191z" />
<glyph unicode="&#xe61f;" d="M905.846-63.469c0 0-551.382 0-551.382 0-65.252 0-118.154 52.869-118.154 118.071 0 0 0 393.565 0 393.565 0 65.202 52.903 118.067 118.154 118.067 0 0 551.382 0 551.382 0 65.248 0 118.154-52.865 118.154-118.067 0 0 0-393.565 0-393.565 0-65.202-52.907-118.071-118.154-118.071zM630.154 369.452c-43.501 0-78.768-35.241-78.768-78.711 0-29.059 15.94-54.154 39.382-67.8 0 0 0-89.627 0-89.627 0-21.697 17.673-39.356 39.386-39.356s39.382 17.658 39.382 39.356c0 0 0 89.627 0 89.627 23.442 13.646 39.386 38.741 39.386 67.8 0 43.471-35.267 78.711-78.768 78.711zM433.232 648.234c0.080 63.048-15.982 112.765-41.153 143.762-25.482 30.769-58.596 49.004-116.387 49.736-57.632-0.732-90.749-19.122-116.383-50.043-25.251-31.247-41.233-80.979-41.153-143.455 0 0 0-121.374 0-121.374h-118.154c0 0 0 121.374 0 121.374 0.080 81.594 20.097 158.14 67.038 217.194 46.539 59.263 121.769 95.16 208.653 94.371 86.729 0.789 161.887-34.706 208.577-93.992 47.017-58.937 67.038-135.498 67.118-217.573 0 0 0-42.663 0-42.663h-118.154c0 0 0 42.663 0 42.663z" />
<glyph unicode="&#xe620;" d="M771.8-52.656c-138.676 0-251.13 110.042-251.13 245.73 0 135.699 112.454 245.741 251.13 245.741s251.134-110.042 251.134-245.741c0-135.688-112.458-245.73-251.134-245.73zM910.385 227.886h-103.834v100.913h-69.928v-100.913h-103.826v-69.765h103.826v-100.951h69.928v100.951h103.834v69.765zM528.13 445.732c-10.877-32.855-8.564-53.855-2.526-67.531-40.346-51.325-64.607-115.382-64.607-185.128 0-80.722 32.385-153.919 84.871-208.373-42.72-3.072-87.048-4.377-130.867-4.377-199.851 0-415.744 25.164-415.744 135.832 0 21.743 0 8.48 0 30.394 0 81.199 147.361 163.453 272.926 208.555 9.091 3.349 52.448 26.761 28.206 89.949-62.202 63.162-102.958 165.44-102.958 266.088 0 154.154 96.351 234.962 216.364 234.962 119.929 0 216.902-80.809 216.902-234.962 0-100.246-41.028-202.126-102.874-265.409 0 0 0.307 0 0.307 0z" />
<glyph unicode="&#xe621;" d="M1023.348 447.928c-0.030 286.291-229.016 518.341-511.526 518.375-282.518-0.034-511.503-232.084-511.503-518.375 0-286.288 228.985-518.334 511.503-518.372 282.51 0.038 511.496 232.084 511.526 518.372zM61.338 447.928c0.493 252.105 201.709 456.014 450.484 456.465 248.768-0.451 449.984-204.36 450.461-456.465-0.478-252.094-201.694-455.999-450.461-456.45-248.775 0.451-449.991 204.356-450.484 456.45zM515.933 84.708c0.584 0.076 1.179 0.064 1.76 0.178 1.418 0.284 2.742 0.751 4.073 1.221 0.55 0.186 1.104 0.296 1.638 0.516 1.373 0.569 2.64 1.316 3.906 2.078 0.463 0.265 0.956 0.466 1.403 0.766 1.745 1.179 3.356 2.53 4.832 4.043 0 0 122.008 123.646 122.008 123.646 11.928 12.076 11.928 31.664 0 43.778-11.916 12.068-31.24 12.068-43.186 0 0 0-70.023-70.978-70.023-70.978v515.929c0 0 70.023-70.956 70.023-70.956 11.947-12.076 31.27-12.076 43.186 0 11.928 12.11 11.928 31.698 0 43.774 0 0-122.114 123.749-122.114 123.749-0.011 0.015-0.011 0.030-0.030 0.046-0.387 0.394-0.846 0.664-1.252 1.035-1.070 0.982-2.162 1.965-3.368 2.788-0.971 0.667-2.029 1.149-3.057 1.684-0.732 0.375-1.418 0.838-2.181 1.157-1.369 0.58-2.788 0.963-4.202 1.324-0.493 0.129-0.971 0.338-1.475 0.448-3.997 0.812-8.112 0.812-12.11 0-0.626-0.129-1.206-0.379-1.836-0.554-1.297-0.345-2.579-0.679-3.831-1.202-0.895-0.375-1.688-0.899-2.537-1.35-0.906-0.493-1.832-0.899-2.7-1.49-1.487-1.009-2.86-2.185-4.157-3.436-0.152-0.152-0.341-0.25-0.493-0.41-0.015-0.011-0.015-0.027-0.027-0.038 0 0-122.129-123.756-122.129-123.756-5.951-6.045-8.916-13.964-8.916-21.876 0-7.915 2.966-15.834 8.916-21.879 11.928-12.087 31.285-12.087 43.213 0 0 0 69.996 70.929 69.996 70.929v-515.891c0 0-69.996 70.929-69.996 70.929-11.928 12.091-31.285 12.091-43.213 0-5.951-6.045-8.916-13.964-8.916-21.872 0-7.915 2.966-15.834 8.916-21.879 0 0 122.065-123.707 122.065-123.707 1.479-1.494 3.087-2.825 4.836-4.001 0.338-0.228 0.717-0.372 1.058-0.588 1.358-0.834 2.742-1.631 4.233-2.249 0.432-0.182 0.895-0.262 1.343-0.425 1.43-0.512 2.848-1.013 4.369-1.301 0.432-0.087 0.895-0.072 1.343-0.14 1.479-0.228 2.951-0.459 4.502-0.459 1.418 0 2.761 0.231 4.13 0.421z" />
</font>
</defs>
</svg>
